<?xml version="1.0" encoding="utf-8"?>
<!-- Generator: Adobe Illustrator 21.0.0, SVG Export Plug-In . SVG Version: 6.00 Build 0)  -->
<svg version="1.1" id="Layer_1" xmlns="http://www.w3.org/2000/svg" xmlns:xlink="http://www.w3.org/1999/xlink" x="0px" y="0px"
	 viewBox="0 0 100.2 21.6" style="enable-background:new 0 0 100.2 21.6;" xml:space="preserve">
<style type="text/css">
	.st0{fill:#74B9FF;}
	.st1{fill:#4353FF;}
	.st2{fill:#FFFFFF;}
</style>
<title>sdfsdfsd</title>
<path class="st0" d="M13.3,1.8L5.3,15.9c-0.9,1.7-0.3,3.9,1.4,4.9c0.5,0.3,1.1,0.4,1.7,0.4h16.1c2,0,3.6-1.6,3.6-3.5
	c0-0.6-0.2-1.3-0.5-1.8L19.5,1.8c-1-1.7-3.2-2.3-4.9-1.3C14.1,0.8,13.6,1.3,13.3,1.8L13.3,1.8z"/>
<path class="st1" d="M8.6,1.8l-8,14.1c-1,1.7-0.4,3.9,1.3,4.9c0.5,0.3,1.2,0.5,1.8,0.5h16.1c2,0,3.6-1.6,3.6-3.5
	c0-0.6-0.2-1.3-0.5-1.8L14.8,1.8c-1-1.7-3.2-2.3-4.9-1.4C9.3,0.8,8.9,1.3,8.6,1.8z"/>
<path class="st2" d="M32.8,21.3V1.1h7.6c1.4,0,2.7,0.3,3.9,0.9c1,0.5,1.9,1.4,2.4,2.4c0.6,1.1,0.8,2.2,0.8,3.4
	c0,1.2-0.3,2.4-0.8,3.4c-0.5,1-1.4,1.9-2.4,2.4c-1.2,0.6-2.6,0.9-3.9,0.9h-5v-3h4.5c0.8,0,1.5-0.1,2.2-0.5c0.6-0.3,1-0.7,1.3-1.3
	c0.3-0.6,0.4-1.2,0.4-1.9c0-0.7-0.1-1.3-0.4-1.9c-0.3-0.6-0.8-1-1.3-1.3c-0.7-0.3-1.5-0.5-2.2-0.5h-3.4v17.1H32.8z"/>
<path class="st2" d="M56.4,21.6c-1.4,0-2.7-0.3-3.8-1c-1.1-0.6-2-1.6-2.5-2.7c-0.6-1.3-0.9-2.7-0.9-4.1c0-1.4,0.3-2.9,0.9-4.2
	c0.6-1.1,1.4-2.1,2.5-2.7c2.4-1.3,5.3-1.3,7.7,0c1.1,0.7,2,1.6,2.5,2.7c0.6,1.3,0.9,2.7,0.9,4.1c0,1.4-0.3,2.8-0.9,4.1
	c-0.6,1.2-1.4,2.1-2.5,2.8C59.1,21.3,57.7,21.7,56.4,21.6z M56.4,18.8c0.7,0,1.4-0.2,2-0.7c0.6-0.5,1-1.1,1.2-1.8
	c0.3-0.8,0.4-1.7,0.4-2.5c0-0.9-0.1-1.7-0.4-2.5c-0.2-0.7-0.6-1.3-1.2-1.8c-0.6-0.5-1.3-0.7-2-0.7c-0.7,0-1.4,0.2-2,0.7
	c-0.6,0.5-1,1.1-1.2,1.8c-0.3,0.8-0.4,1.7-0.4,2.5c0,0.9,0.1,1.7,0.4,2.5c0.2,0.7,0.7,1.3,1.2,1.8C55,18.5,55.7,18.8,56.4,18.8
	L56.4,18.8z"/>
<path class="st2" d="M69.7,1.1v20.2h-3.6V1.1H69.7z"/>
<path class="st2" d="M74.6,4c-0.5,0-1.1-0.2-1.5-0.6c-0.8-0.7-0.8-1.9-0.1-2.6c0,0,0.1-0.1,0.1-0.1c0.8-0.8,2.1-0.8,2.9,0
	c0.8,0.7,0.8,1.9,0.1,2.6c0,0-0.1,0.1-0.1,0.1C75.7,3.8,75.1,4,74.6,4z M72.8,21.3V6.1h3.6v15.2H72.8z"/>
<path class="st2" d="M86.1,21.6c-1.4,0-2.7-0.3-3.8-1c-1.1-0.6-2-1.6-2.5-2.7c-0.6-1.3-0.9-2.7-0.9-4.1c0-1.4,0.3-2.9,0.9-4.2
	c0.6-1.1,1.4-2.1,2.5-2.7c2.4-1.3,5.3-1.3,7.7,0c1.1,0.7,2,1.6,2.5,2.7c0.6,1.3,0.9,2.7,0.9,4.1c0,1.4-0.3,2.8-0.9,4.1
	C91.9,19,91,20,89.9,20.6C88.7,21.3,87.4,21.7,86.1,21.6z M86.1,18.8c0.7,0,1.4-0.2,2-0.7c0.6-0.5,1-1.1,1.2-1.8
	c0.3-0.8,0.4-1.7,0.4-2.5c0-0.9-0.1-1.7-0.4-2.5c-0.2-0.7-0.6-1.3-1.2-1.8c-0.6-0.5-1.3-0.7-2-0.7c-0.7,0-1.4,0.2-2,0.7
	c-0.6,0.5-1,1.1-1.2,1.8c-0.3,0.8-0.4,1.7-0.4,2.5c0,0.9,0.1,1.7,0.4,2.5c0.2,0.7,0.7,1.3,1.2,1.8C84.7,18.5,85.4,18.8,86.1,18.8
	L86.1,18.8z"/>
<path class="st1" d="M98,21.5c-0.6,0-1.1-0.2-1.5-0.6c-0.4-0.4-0.7-1-0.6-1.5c0-0.6,0.2-1.1,0.6-1.5c0.8-0.8,2.2-0.8,3.1,0
	c0.4,0.4,0.7,0.9,0.7,1.5c0,0.4-0.1,0.8-0.3,1.1c-0.2,0.3-0.5,0.6-0.8,0.8C98.8,21.4,98.4,21.5,98,21.5z"/>
</svg>
