<svg id="Layer_1" data-name="Layer 1" xmlns="http://www.w3.org/2000/svg" viewBox="0 0 100.17 21.59"><defs><style>.cls-1{fill:#74b9ff;}.cls-2{fill:#4353ff;}.cls-3{fill:#081828;}</style></defs><title>sdfsdfsd</title><path class="cls-1" d="M14.4,5.22,6.34,19.27a3.58,3.58,0,0,0,3.09,5.29H25.55a3.58,3.58,0,0,0,3.12-5.39L20.61,5.12a3.58,3.58,0,0,0-6.21.09Z" transform="translate(-1.09 -3.37)"/><path class="cls-2" d="M9.64,5.22l-8,14.05A3.58,3.58,0,0,0,4.7,24.66H20.82a3.58,3.58,0,0,0,3.12-5.39L15.87,5.22a3.58,3.58,0,0,0-6.23,0Z" transform="translate(-1.09 -3.37)"/><path class="cls-3" d="M33.92,24.66V4.46H41.5a8,8,0,0,1,3.91.87,5.82,5.82,0,0,1,2.4,2.38,7.14,7.14,0,0,1,.81,3.44,7.12,7.12,0,0,1-.82,3.45A5.82,5.82,0,0,1,45.39,17a8.2,8.2,0,0,1-3.94.86h-5v-3H41a4.63,4.63,0,0,0,2.23-.47,3,3,0,0,0,1.29-1.3,4.15,4.15,0,0,0,.42-1.9,4.09,4.09,0,0,0-.42-1.89A2.94,2.94,0,0,0,43.18,8a4.8,4.8,0,0,0-2.24-.46H37.58V24.66Z" transform="translate(-1.09 -3.37)"/><path class="cls-3" d="M57.48,25a7.33,7.33,0,0,1-3.85-1,6.6,6.6,0,0,1-2.52-2.73,8.94,8.94,0,0,1-.89-4.1A9,9,0,0,1,51.11,13a6.59,6.59,0,0,1,2.52-2.74,8.07,8.07,0,0,1,7.69,0A6.59,6.59,0,0,1,63.84,13a9,9,0,0,1,.89,4.11,8.93,8.93,0,0,1-.89,4.1A6.59,6.59,0,0,1,61.32,24,7.33,7.33,0,0,1,57.48,25Zm0-2.86a3.06,3.06,0,0,0,2-.67,4,4,0,0,0,1.21-1.79,7.47,7.47,0,0,0,.4-2.51,7.53,7.53,0,0,0-.4-2.52,4,4,0,0,0-1.21-1.8,3,3,0,0,0-2-.67,3.11,3.11,0,0,0-2,.67,4,4,0,0,0-1.21,1.8,7.51,7.51,0,0,0-.4,2.52,7.44,7.44,0,0,0,.4,2.51,4,4,0,0,0,1.21,1.79A3.12,3.12,0,0,0,57.49,22.1Z" transform="translate(-1.09 -3.37)"/><path class="cls-3" d="M70.77,4.46v20.2H67.2V4.46Z" transform="translate(-1.09 -3.37)"/><path class="cls-3" d="M75.68,7.36a2.07,2.07,0,0,1-1.46-.57,1.85,1.85,0,0,1,0-2.74,2.16,2.16,0,0,1,2.92,0,1.85,1.85,0,0,1,0,2.74A2.06,2.06,0,0,1,75.68,7.36Zm-1.79,17.3V9.51h3.57V24.66Z" transform="translate(-1.09 -3.37)"/><path class="cls-3" d="M87.17,25a7.33,7.33,0,0,1-3.85-1,6.6,6.6,0,0,1-2.52-2.73,8.94,8.94,0,0,1-.89-4.1A9,9,0,0,1,80.81,13a6.59,6.59,0,0,1,2.52-2.74,8.07,8.07,0,0,1,7.69,0A6.59,6.59,0,0,1,93.54,13a9,9,0,0,1,.89,4.11,8.93,8.93,0,0,1-.89,4.1A6.59,6.59,0,0,1,91,24,7.33,7.33,0,0,1,87.17,25Zm0-2.86a3.06,3.06,0,0,0,2-.67,4,4,0,0,0,1.21-1.79,7.47,7.47,0,0,0,.4-2.51,7.53,7.53,0,0,0-.4-2.52,4,4,0,0,0-1.21-1.8,3,3,0,0,0-2-.67,3.11,3.11,0,0,0-2,.67,4,4,0,0,0-1.21,1.8,7.51,7.51,0,0,0-.4,2.52,7.44,7.44,0,0,0,.4,2.51,4,4,0,0,0,1.21,1.79A3.12,3.12,0,0,0,87.19,22.1Z" transform="translate(-1.09 -3.37)"/><path class="cls-2" d="M99.09,24.88a2.12,2.12,0,0,1-1.54-.63,2,2,0,0,1-.63-1.54,2,2,0,0,1,.63-1.52,2.16,2.16,0,0,1,3.05,0,2.08,2.08,0,0,1,.66,1.52A2.13,2.13,0,0,1,101,23.8a2.28,2.28,0,0,1-.79.78A2.05,2.05,0,0,1,99.09,24.88Z" transform="translate(-1.09 -3.37)"/></svg>