<?xml version="1.0" encoding="utf-8"?>
<!-- Generator: Adobe Illustrator 21.0.0, SVG Export Plug-In . SVG Version: 6.00 Build 0)  -->
<svg version="1.1" id="Layer_1" xmlns="http://www.w3.org/2000/svg" xmlns:xlink="http://www.w3.org/1999/xlink" x="0px" y="0px"
	 viewBox="0 0 71.9 38" style="enable-background:new 0 0 71.9 38;" xml:space="preserve">
<style type="text/css">
	.st0{fill:#3763EB;}
</style>
<path class="st0" d="M7.8,3.9c0,1.6-1.3,2.9-2.9,2.9s-3-1.2-3-2.9S3.1,1,4.7,1l0,0C6.4,1,7.7,2.3,7.8,3.9C7.8,3.8,7.8,3.9,7.8,3.9z
	 M23.3,3.9c0,1.6-1.3,2.9-2.9,2.9s-2.9-1.3-2.9-2.9S18.8,1,20.4,1l0,0C22,1,23.3,2.3,23.3,3.9z M38.8,3.9c0,1.6-1.3,2.9-2.9,2.9
	c-1.6,0-2.9-1.3-2.9-2.9S34.3,1,35.9,1l0,0C37.6,1,38.8,2.3,38.8,3.9L38.8,3.9z M54.5,3.9c0,1.6-1.3,2.9-2.9,2.9
	c-1.6,0-2.9-1.3-2.9-2.9S49.9,1,51.5,1l0,0C53.1,1,54.5,2.3,54.5,3.9L54.5,3.9z M70,3.9c0,1.6-1.3,2.9-2.9,2.9s-2.9-1.3-2.9-2.9
	S65.5,1,67.1,1l0,0C68.8,1,70,2.3,70,3.9L70,3.9z M7.7,19c0,1.6-1.3,2.9-2.9,2.9C3.3,21.9,2,20.6,2,19s1.2-2.8,2.8-2.9l0,0
	C6.4,16.1,7.7,17.4,7.7,19C7.8,19,7.8,19,7.7,19L7.7,19z M23.3,19c0,1.6-1.3,2.9-2.9,2.9s-2.9-1.3-2.9-2.9s1.3-2.9,2.9-2.9l0,0
	C22,16.1,23.3,17.4,23.3,19L23.3,19z M38.8,19c0,1.6-1.3,2.9-2.9,2.9c-1.6,0-2.9-1.3-2.9-2.9s1.3-2.9,2.9-2.9l0,0
	C37.6,16.1,38.8,17.4,38.8,19L38.8,19z M54.5,19c0,1.6-1.3,2.9-2.9,2.9c-1.6,0-2.9-1.3-2.9-2.9s1.3-2.9,2.9-2.9l0,0
	C53.1,16.1,54.5,17.4,54.5,19L54.5,19z M70,19c0,1.6-1.3,2.9-2.9,2.9s-2.9-1.3-2.9-2.9s1.3-2.9,2.9-2.9l0,0C68.8,16.1,70,17.4,70,19
	L70,19z M7.7,34.1c0,1.6-1.3,2.9-2.9,2.9C3.3,37.1,2,35.8,2,34.2s1.3-2.9,2.9-2.9l0,0C6.4,31.2,7.7,32.5,7.7,34.1
	C7.8,34.1,7.8,34.1,7.7,34.1L7.7,34.1z M23.3,34.1c0,1.6-1.3,2.9-2.9,2.9s-2.9-1.3-2.9-2.9c0-1.6,1.3-2.9,2.9-2.9l0,0
	C22,31.2,23.3,32.5,23.3,34.1L23.3,34.1z M38.8,34.1c0,1.6-1.3,2.9-2.9,2.9c-1.6,0-2.9-1.3-2.9-2.9c0-1.6,1.3-2.9,2.9-2.9l0,0
	C37.6,31.2,38.8,32.5,38.8,34.1L38.8,34.1z M54.5,34.1c0,1.6-1.3,2.9-2.9,2.9c-1.6,0-2.9-1.3-2.9-2.9c0-1.6,1.3-2.9,2.9-2.9l0,0
	C53.1,31.2,54.5,32.5,54.5,34.1L54.5,34.1z M70,34.1c0,1.6-1.3,2.9-2.9,2.9s-2.9-1.3-2.9-2.9c0-1.6,1.3-2.9,2.9-2.9l0,0
	C68.8,31.2,70,32.5,70,34.1L70,34.1z"/>
</svg>
