<?xml version="1.0" encoding="utf-8"?>
<!-- Generator: Adobe Illustrator 21.0.0, SVG Export Plug-In . SVG Version: 6.00 Build 0)  -->
<svg version="1.1" id="Layer_1" xmlns="http://www.w3.org/2000/svg" xmlns:xlink="http://www.w3.org/1999/xlink" x="0px" y="0px"
	 viewBox="0 0 71.9 38" style="enable-background:new 0 0 71.9 38;" xml:space="preserve">
<style type="text/css">
	.st0{fill:#FFFFFF;}
</style>
<path class="st0" d="M6.2,3.1c0,1.7-1.4,3.1-3.1,3.1C1.4,6.2,0,4.8,0,3.1C0,1.4,1.3,0,3,0c0,0,0,0,0,0C4.8,0,6.1,1.4,6.2,3.1
	C6.2,3,6.2,3.1,6.2,3.1z M22.6,3.1c0,1.7-1.4,3.1-3.1,3.1c-1.7,0-3.1-1.4-3.1-3.1c0-1.7,1.4-3.1,3.1-3.1c0,0,0,0,0,0
	C21.2,0,22.6,1.4,22.6,3.1z M39,3.1c0,1.7-1.4,3.1-3.1,3.1c-1.7,0-3.1-1.4-3.1-3.1c0-1.7,1.4-3.1,3.1-3.1c0,0,0,0,0,0
	C37.7,0,39,1.4,39,3.1L39,3.1z M55.5,3.1c0,1.7-1.4,3.1-3.1,3.1c-1.7,0-3.1-1.4-3.1-3.1c0-1.7,1.4-3.1,3.1-3.1c0,0,0,0,0,0
	C54.1,0,55.5,1.4,55.5,3.1L55.5,3.1z M71.9,3.1c0,1.7-1.4,3.1-3.1,3.1c-1.7,0-3.1-1.4-3.1-3.1c0-1.7,1.4-3.1,3.1-3.1c0,0,0,0,0,0
	C70.6,0,71.9,1.4,71.9,3.1L71.9,3.1z M6.1,19c0,1.7-1.4,3.1-3.1,3.1C1.4,22.1,0,20.7,0,19C0,17.3,1.3,16,3,15.9c0,0,0,0,0,0
	C4.8,15.9,6.1,17.3,6.1,19C6.2,19,6.2,19,6.1,19L6.1,19z M22.6,19c0,1.7-1.4,3.1-3.1,3.1c-1.7,0-3.1-1.4-3.1-3.1
	c0-1.7,1.4-3.1,3.1-3.1c0,0,0,0,0,0C21.2,15.9,22.6,17.3,22.6,19L22.6,19z M39,19c0,1.7-1.4,3.1-3.1,3.1c-1.7,0-3.1-1.4-3.1-3.1
	c0-1.7,1.4-3.1,3.1-3.1c0,0,0,0,0,0C37.7,15.9,39,17.3,39,19L39,19z M55.5,19c0,1.7-1.4,3.1-3.1,3.1c-1.7,0-3.1-1.4-3.1-3.1
	c0-1.7,1.4-3.1,3.1-3.1c0,0,0,0,0,0C54.1,15.9,55.5,17.3,55.5,19L55.5,19z M71.9,19c0,1.7-1.4,3.1-3.1,3.1c-1.7,0-3.1-1.4-3.1-3.1
	c0-1.7,1.4-3.1,3.1-3.1c0,0,0,0,0,0C70.6,15.9,71.9,17.3,71.9,19L71.9,19z M6.1,34.9c0,1.7-1.4,3.1-3.1,3.1C1.4,38.1,0,36.7,0,35
	c0-1.7,1.4-3.1,3.1-3.1c0,0,0,0,0,0C4.8,31.9,6.1,33.2,6.1,34.9C6.2,34.9,6.2,34.9,6.1,34.9L6.1,34.9z M22.6,34.9
	c0,1.7-1.4,3.1-3.1,3.1c-1.7,0-3.1-1.4-3.1-3.1c0-1.7,1.4-3.1,3.1-3.1c0,0,0,0,0,0C21.2,31.9,22.6,33.2,22.6,34.9L22.6,34.9z
	 M39,34.9c0,1.7-1.4,3.1-3.1,3.1c-1.7,0-3.1-1.4-3.1-3.1c0-1.7,1.4-3.1,3.1-3.1c0,0,0,0,0,0C37.7,31.9,39,33.2,39,34.9L39,34.9z
	 M55.5,34.9c0,1.7-1.4,3.1-3.1,3.1c-1.7,0-3.1-1.4-3.1-3.1c0-1.7,1.4-3.1,3.1-3.1c0,0,0,0,0,0C54.1,31.9,55.5,33.2,55.5,34.9
	L55.5,34.9z M71.9,34.9c0,1.7-1.4,3.1-3.1,3.1c-1.7,0-3.1-1.4-3.1-3.1c0-1.7,1.4-3.1,3.1-3.1c0,0,0,0,0,0
	C70.6,31.9,71.9,33.2,71.9,34.9L71.9,34.9z"/>
</svg>
